<svg width="151" height="30" viewBox="0 0 151 30" fill="none" xmlns="http://www.w3.org/2000/svg">
<path d="M10.2801 10.1071C10.2801 10.8037 10.1041 11.4116 9.75199 11.9309C9.39988 12.4502 8.92203 12.8555 8.31842 13.1468C7.7274 13.4381 7.07349 13.5838 6.35671 13.5838H0V0.094986H6.65851C7.28727 0.094986 7.828 0.265971 8.2807 0.60794C8.74598 0.937243 9.09808 1.36787 9.33701 1.89982C9.58851 2.4191 9.71426 2.96372 9.71426 3.53367C9.71426 4.19228 9.5445 4.81289 9.20497 5.3955C8.87802 5.96545 8.40645 6.38974 7.79027 6.66838C8.55735 6.89636 9.16096 7.32066 9.60108 7.94127C10.0538 8.54921 10.2801 9.27115 10.2801 10.1071ZM8.56364 9.8031C8.56364 9.38514 8.46933 8.99884 8.2807 8.6442C8.10465 8.28957 7.85943 8.00459 7.54506 7.78928C7.24325 7.57397 6.89115 7.46631 6.48875 7.46631H1.69764V12.1019H6.35671C6.77169 12.1019 7.14265 11.9942 7.46961 11.7789C7.80913 11.5636 8.07321 11.285 8.26184 10.943C8.46304 10.5884 8.56364 10.2084 8.56364 9.8031ZM1.69764 1.57685V6.07944H5.96059C6.363 6.07944 6.7151 5.97811 7.0169 5.77546C7.33128 5.57282 7.57649 5.30051 7.75255 4.95854C7.94117 4.61657 8.03549 4.24294 8.03549 3.83764C8.03549 3.40701 7.94746 3.02705 7.77141 2.69775C7.60793 2.35578 7.37529 2.08347 7.07349 1.88082C6.78426 1.67817 6.45102 1.57685 6.07377 1.57685H1.69764Z" fill="#1C1B20"/>
<path d="M21.7467 12.0639V13.5838H12.6549V0.094986H21.5769V1.61484H14.3526V5.98445H20.6338V7.40932H14.3526V12.0639H21.7467Z" fill="#1C1B20"/>
<path d="M33.7333 1.61484H29.112V13.5838H27.4143V1.61484H22.793V0.094986H33.7333V1.61484Z" fill="#1C1B20"/>
<path d="M45.3198 1.61484H40.6985V13.5838H39.0009V1.61484H34.3795V0.094986H45.3198V1.61484Z" fill="#1C1B20"/>
<path d="M56.3405 12.0639V13.5838H47.2487V0.094986H56.1707V1.61484H48.9463V5.98445H55.2276V7.40932H48.9463V12.0639H56.3405Z" fill="#1C1B20"/>
<path d="M58.6694 13.5838V0.094986H64.4037C64.9947 0.094986 65.5354 0.221641 66.0259 0.474951C66.5163 0.715597 66.9439 1.0449 67.3085 1.46286C67.6732 1.86815 67.9561 2.33045 68.1573 2.84973C68.3585 3.35635 68.4592 3.87564 68.4592 4.40759C68.4592 5.0282 68.3397 5.61715 68.1008 6.17443C67.8744 6.73171 67.5475 7.20667 67.1199 7.5993C66.7049 7.99193 66.2145 8.26424 65.6486 8.41622L68.893 13.5838H66.969L63.9133 8.73919H60.3671V13.5838H58.6694ZM60.3671 7.21933H64.4225C64.8878 7.21933 65.2902 7.09268 65.6298 6.83937C65.9819 6.57339 66.2522 6.22509 66.4408 5.79446C66.642 5.36384 66.7427 4.90154 66.7427 4.40759C66.7427 3.90097 66.6295 3.43868 66.4031 3.02071C66.1768 2.59009 65.8813 2.24812 65.5166 1.99481C65.1519 1.7415 64.7495 1.61484 64.3094 1.61484H60.3671V7.21933Z" fill="#1C1B20"/>
<path d="M82.6481 13.5838V3.28669L78.2343 11.209H77.1968L72.7641 3.28669V13.5838H71.0665V0.094986H72.8584L77.7061 8.85318L82.5727 0.094986H84.3458V13.5838H82.6481Z" fill="#1C1B20"/>
<path d="M92.9853 13.6788C92.0422 13.6788 91.1871 13.4888 90.42 13.1088C89.6529 12.7288 88.9864 12.2159 88.4205 11.5699C87.8672 10.9113 87.4397 10.1767 87.1379 9.36615C86.8361 8.54289 86.6852 7.70063 86.6852 6.83938C86.6852 5.94013 86.8424 5.0852 87.1567 4.27461C87.4837 3.45135 87.9301 2.72309 88.496 2.08981C89.0744 1.44387 89.7472 0.937248 90.5143 0.569948C91.2814 0.189983 92.1176 0 93.023 0C93.9662 0 94.8213 0.196316 95.5883 0.588947C96.3554 0.981577 97.0156 1.5072 97.5689 2.1658C98.1222 2.82441 98.5498 3.55901 98.8516 4.3696C99.1534 5.1802 99.3043 6.00979 99.3043 6.85838C99.3043 7.75763 99.1471 8.61888 98.8327 9.44214C98.5183 10.2527 98.0719 10.981 97.4935 11.6269C96.9276 12.2602 96.2611 12.7605 95.494 13.1278C94.727 13.4951 93.8907 13.6788 92.9853 13.6788ZM88.4017 6.83938C88.4017 7.52332 88.5086 8.18826 88.7223 8.8342C88.9487 9.46747 89.2631 10.0311 89.6655 10.525C90.0679 11.019 90.552 11.4116 91.1179 11.7029C91.6838 11.9942 92.3125 12.1399 93.0042 12.1399C93.7209 12.1399 94.3623 11.9879 94.9282 11.6839C95.494 11.38 95.9719 10.9747 96.3617 10.468C96.7641 9.96143 97.0659 9.39148 97.2671 8.7582C97.4809 8.12493 97.5878 7.48532 97.5878 6.83938C97.5878 6.15544 97.4746 5.49683 97.2483 4.86356C97.0345 4.23028 96.7201 3.66667 96.3051 3.17271C95.9027 2.66609 95.4186 2.27346 94.8527 1.99482C94.2994 1.70351 93.6832 1.55786 93.0042 1.55786C92.2874 1.55786 91.6461 1.70984 91.0802 2.01382C90.5143 2.30512 90.0302 2.70409 89.6278 3.21071C89.2379 3.71733 88.9361 4.28728 88.7223 4.92055C88.5086 5.54116 88.4017 6.18077 88.4017 6.83938Z" fill="#1C1B20"/>
<path d="M103.361 3.24869V13.5838H101.663V0.094986H103.097L111.283 10.639V0.113984H112.981V13.5838H111.434L103.361 3.24869Z" fill="#1C1B20"/>
<path d="M116.178 13.5838V0.094986H120.819C122.252 0.094986 123.447 0.398958 124.403 1.0069C125.371 1.60218 126.094 2.41277 126.572 3.43868C127.05 4.45192 127.288 5.57915 127.288 6.82037C127.288 8.18825 127.024 9.3788 126.496 10.3921C125.968 11.4053 125.22 12.1906 124.252 12.7478C123.283 13.3051 122.139 13.5838 120.819 13.5838H116.178ZM125.572 6.82037C125.572 5.80713 125.383 4.90788 125.006 4.12262C124.641 3.33735 124.107 2.72308 123.403 2.27978C122.699 1.83649 121.837 1.61484 120.819 1.61484H117.876V12.0639H120.819C121.85 12.0639 122.717 11.8359 123.422 11.38C124.126 10.9113 124.66 10.2844 125.025 9.49913C125.39 8.7012 125.572 7.80828 125.572 6.82037Z" fill="#1C1B20"/>
<path d="M133.276 0.094986H134.71L140.18 13.5838H138.369L136.784 9.63211H131.163L129.598 13.5838H127.787L133.276 0.094986ZM136.407 8.30223L133.993 2.0708L131.503 8.30223H136.407Z" fill="#1C1B20"/>
<path d="M141.003 0.094986L145.058 7.12434L149.151 0.094986H151L145.907 8.6632V18.3333H144.209V8.62521L139.135 0.094986H141.003Z" fill="#1C1B20"/>
<path d="M149.341 25.8333C149.341 28.1345 147.483 30 145.192 30C142.901 30 141.044 28.1345 141.044 25.8333C141.044 23.5321 142.901 21.6667 145.192 21.6667C147.483 21.6667 149.341 23.5321 149.341 25.8333Z" fill="#E45151"/>
</svg>
